<svg xmlns="http://www.w3.org/2000/svg" width="85.565" height="65.812" viewBox="0 0 85.565 65.812">
  <g id="Group_1753" data-name="Group 1753" transform="translate(-728 -2434)">
    <path id="Path_880" data-name="Path 880" d="M28.572,0,0,49.661,9.215,65.812h66.9l9.452-16.25L57.076,0Z" transform="translate(728 2434)" fill="#3066be"/>
    <path id="Path_878" data-name="Path 878" d="M14.219,17.875c0-3.685,2.447-6.562,5.469-6.562s5.469,2.878,5.469,6.563c0,3.623-2.447,6.563-5.469,6.563S14.219,21.5,14.219,17.875ZM0,29.188V8.1A2.573,2.573,0,0,1,3.305,5.778c5.458,1.44,10.92.107,16.382-1.284,5.94-1.514,11.881-3.028,17.821-.82a3.015,3.015,0,0,1,1.866,2.887V27.589a2.515,2.515,0,0,1-3.3,2.324c-5.462-1.442-10.924-.048-16.386,1.34-5.94,1.518-11.881,3.028-17.822.82A3.013,3.013,0,0,1,0,29.188ZM19.086,28.02c3.821-.978,8.162-2.085,12.667-1.962a4.383,4.383,0,0,1,4.341-3.808V10.219a4.377,4.377,0,0,1-4.375-4.365C28.506,5.737,25.1,6.5,21.212,7.491c-.3.075-.608.157-.923.239-3.821.978-8.162,2.085-12.667,1.962A4.381,4.381,0,0,1,3.281,13.5V25.531A4.378,4.378,0,0,1,7.656,29.9c3.151.116,6.617-.656,10.507-1.641C18.464,28.184,18.771,28.1,19.086,28.02Z" transform="translate(751 2452.438)" fill="#fff"/>
  </g>
</svg>
