<svg xmlns="http://www.w3.org/2000/svg" width="85.565" height="65.812" viewBox="0 0 85.565 65.812">
  <g id="Group_1754" data-name="Group 1754" transform="translate(-1188 -2434)">
    <path id="Path_821" data-name="Path 821" d="M28.572,0,0,49.661,9.215,65.812h66.9l9.452-16.25L57.076,0Z" transform="translate(1188 2434)" fill="#3066be"/>
    <path id="Path_879" data-name="Path 879" d="M17.562,20.247l3.609.526a.708.708,0,0,1,.39,1.21l-2.6,2.543.615,3.589a.714.714,0,0,1-1.032.752l-3.227-1.7-3.227,1.7a.714.714,0,0,1-1.032-.752l.615-3.589-2.6-2.543a.708.708,0,0,1,.39-1.21l3.609-.526,1.613-3.268a.709.709,0,0,1,1.271,0ZM8.75.375a1.639,1.639,0,0,1,1.641,1.641V4.75h9.844V2.016a1.641,1.641,0,0,1,3.281,0V4.75H26.25a4.377,4.377,0,0,1,4.375,4.375V31a4.379,4.379,0,0,1-4.375,4.375H4.375A4.377,4.377,0,0,1,0,31V9.125A4.375,4.375,0,0,1,4.375,4.75H7.109V2.016A1.639,1.639,0,0,1,8.75.375ZM27.344,13.5H3.281V31a1.1,1.1,0,0,0,1.094,1.094H26.25A1.1,1.1,0,0,0,27.344,31Z" transform="translate(1216 2450.625)" fill="#fff"/>
  </g>
</svg>
