<svg xmlns="http://www.w3.org/2000/svg" width="36.891" height="32.278" viewBox="0 0 36.891 32.278">
  <path id="Path_871" data-name="Path 871" d="M6.917,13.151H2.306A2.293,2.293,0,0,0,0,15.392V31.467a2.252,2.252,0,0,0,2.306,2.241H6.917a2.293,2.293,0,0,0,2.306-2.241V15.456A2.346,2.346,0,0,0,6.917,13.151Zm29.974,2.587a4.83,4.83,0,0,0-4.825-4.822h-7.2a13.969,13.969,0,0,0,1.069-4.271,4.952,4.952,0,0,0-5.048-4.956c-3.358,0-4.277,2.337-5.016,4.215-2.281,5.8-4.347,4.784-4.347,6.735a1.729,1.729,0,0,0,2.809,1.35c5.531-4.422,4.177-8.841,6.553-8.841a1.514,1.514,0,0,1,1.589,1.5A14.879,14.879,0,0,1,20.64,11.8a1.725,1.725,0,0,0-.221.844,1.675,1.675,0,0,0,1.729,1.664h9.914a1.467,1.467,0,0,1,1.37,1.425,1.363,1.363,0,0,1-1.273,1.348,1.729,1.729,0,0,0-1.611,1.725c0,1.115.821,1.149.821,2.083,0,1.828-2.524.889-2.524,3.037,0,.808.461.939.461,1.6,0,1.633-2.145.991-2.145,2.928,0,.325.08.43.08.681a1.368,1.368,0,0,1-1.367,1.365H22.089a8.648,8.648,0,0,1-5.152-1.716L14.3,26.811a1.728,1.728,0,1,0-2.076,2.764l2.642,1.983a12.13,12.13,0,0,0,7.23,2.409h3.785a4.831,4.831,0,0,0,4.813-4.482,4.784,4.784,0,0,0,2.031-4.608,4.806,4.806,0,0,0,1.975-5.11A4.9,4.9,0,0,0,36.891,15.737Z" transform="translate(0 -1.688)" fill="#3066be"/>
</svg>
