<svg xmlns="http://www.w3.org/2000/svg" width="85.565" height="65.812" viewBox="0 0 85.565 65.812">
  <g id="Group_2103" data-name="Group 2103" transform="translate(-253 -2434)">
    <path id="Path_881" data-name="Path 881" d="M28.572,0,0,49.661,9.215,65.812h66.9l9.452-16.25L57.076,0Z" transform="translate(253 2434)" fill="#3066be"/>
    <path id="Path_877" data-name="Path 877" d="M17.5,5.844a2.188,2.188,0,1,1-2.187,2.188A2.186,2.186,0,0,1,17.5,5.844Zm0,22.422a3.828,3.828,0,1,1,1.928-7.137l7.533-5.154a1.642,1.642,0,1,1,1.859,2.707l-7.54,5.154a3.513,3.513,0,0,1,.048.6A3.831,3.831,0,0,1,17.5,28.266ZM24.063,9.125a2.188,2.188,0,1,1-2.187,2.188A2.185,2.185,0,0,1,24.063,9.125ZM7.656,20.063a2.188,2.188,0,1,1,2.188-2.187A2.186,2.186,0,0,1,7.656,20.063ZM10.938,9.125A2.188,2.188,0,1,1,8.75,11.313,2.185,2.185,0,0,1,10.938,9.125ZM17.5,35.375A17.5,17.5,0,1,1,35,17.875,17.5,17.5,0,0,1,17.5,35.375Zm14.219-17.5A14.219,14.219,0,1,0,17.5,32.094,14.217,14.217,0,0,0,31.719,17.875Z" transform="translate(278 2450.625)" fill="#fff"/>
  </g>
</svg>
