<svg xmlns="http://www.w3.org/2000/svg" xmlns:xlink="http://www.w3.org/1999/xlink" width="27.876" height="27.876" viewBox="0 0 27.876 27.876">
  <defs>
    <clipPath id="clip-path">
      <path id="Path_861" data-name="Path 861" d="M0,16.251H27.876V-11.625H0Z" transform="translate(0 11.625)" fill="#d6d6d6"/>
    </clipPath>
  </defs>
  <g id="Group_1713" data-name="Group 1713" transform="translate(0 11.625)">
    <g id="Group_1712" data-name="Group 1712" transform="translate(0 -11.625)" clip-path="url(#clip-path)">
      <g id="Group_1711" data-name="Group 1711" transform="translate(0 0.001)">
        <path id="Path_860" data-name="Path 860" d="M0,8.125A13.938,13.938,0,1,0,13.937-5.812,13.935,13.935,0,0,0,0,8.125m25.178,0A11.24,11.24,0,1,1,13.937-3.114,11.237,11.237,0,0,1,25.178,8.125M19.136,8.6a.67.67,0,0,0,0-.954l-6.9-6.9a.67.67,0,0,0-.954,0L10.009,2.015a.677.677,0,0,0,0,.957l5.153,5.153-5.153,5.153a.677.677,0,0,0,0,.957L11.28,15.5a.67.67,0,0,0,.954,0Z" transform="translate(0 5.812)" fill="#d6d6d6"/>
      </g>
    </g>
  </g>
</svg>
