<svg xmlns="http://www.w3.org/2000/svg" width="29.738" height="29.738" viewBox="0 0 29.738 29.738">
  <path id="Path_16224" data-name="Path 16224" d="M16.28,8.056a1.395,1.395,0,0,0-1.9,2.044l3.908,3.625H8.364a1.394,1.394,0,0,0,0,2.788H18.29l-3.9,3.625a1.395,1.395,0,1,0,1.9,2.044l6.505-6.04a1.412,1.412,0,0,0,.443-1.022,1.4,1.4,0,0,0-.445-1.022ZM14.869.25A14.869,14.869,0,1,0,29.738,15.119,14.868,14.868,0,0,0,14.869.25Zm0,26.95A12.081,12.081,0,1,1,26.95,15.119,12.094,12.094,0,0,1,14.869,27.2Z" transform="translate(0 -0.25)" fill="#3066be"/>
</svg>
