<svg xmlns="http://www.w3.org/2000/svg" xmlns:xlink="http://www.w3.org/1999/xlink" width="12" height="12" viewBox="0 0 12 12">
  <defs>
    <clipPath id="clip-path">
      <path id="Path_854" data-name="Path 854" d="M0,0H12V-12H0Z" fill="rgba(43,46,52,0.6)"/>
    </clipPath>
  </defs>
  <g id="Group_1699" data-name="Group 1699" transform="translate(0 12)" clip-path="url(#clip-path)">
    <g id="Group_1698" data-name="Group 1698" transform="translate(0 -6)">
      <path id="Path_853" data-name="Path 853" d="M0,0A6,6,0,0,1,6-6a6,6,0,0,1,6,6A6,6,0,0,1,0,0M8.714-1.036a.657.657,0,0,0,0-.928.657.657,0,0,0-.928,0L5.25.572,4.214-.464a.657.657,0,0,0-.928,0,.657.657,0,0,0,0,.928l1.5,1.5a.657.657,0,0,0,.928,0Z" fill="rgba(43,46,52,0.6)"/>
    </g>
  </g>
</svg>
